<svg id="visual" viewBox="0 0 1920 1080" width="1920" height="1080" xmlns="http://www.w3.org/2000/svg" xmlns:xlink="http://www.w3.org/1999/xlink" version="1.1"><rect x="0" y="0" width="1920" height="1080" fill="#ffffff"></rect><g transform="translate(1914.6463577090713 -21.87635999489214)"><path d="M924.7 -1252.3C1187.5 -1081.7 1382.2 -797 1488.7 -480.9C1595.2 -164.8 1613.6 182.7 1510 487.2C1406.4 791.7 1180.8 1053.2 908.8 1234.6C636.8 1416.1 318.4 1517.6 -10.1 1531.4C-338.6 1545.3 -677.1 1471.7 -933.8 1285.2C-1190.4 1098.8 -1365.1 799.5 -1468.6 477.9C-1572.1 156.3 -1604.4 -187.8 -1519.7 -507.8C-1435 -827.8 -1233.3 -1123.8 -960.5 -1291.1C-687.7 -1458.4 -343.9 -1497 -6.5 -1488.1C330.9 -1479.2 661.8 -1422.8 924.7 -1252.3" fill="#e92c4c"></path></g></svg>